<svg preserveAspectRatio="none" width="100%" height="100%" overflow="visible" style="display: block;" viewBox="0 0 10 10" fill="none" xmlns="http://www.w3.org/2000/svg">
<g id="location-05">
<path id="Vector" d="M6.04167 3.75C6.04167 4.32529 5.57529 4.79167 5 4.79167C4.42471 4.79167 3.95833 4.32529 3.95833 3.75C3.95833 3.1747 4.42471 2.70833 5 2.70833C5.57529 2.70833 6.04167 3.1747 6.04167 3.75Z" stroke="var(--stroke-0, #F3F0E9)" stroke-width="0.5"/>
<path id="Vector_2" d="M5.52392 7.289C5.38337 7.42433 5.19554 7.5 5.00008 7.5C4.80458 7.5 4.61675 7.42433 4.47621 7.289C3.18929 6.042 1.46466 4.64896 2.30571 2.62655C2.76046 1.53305 3.85206 0.833333 5.00008 0.833333C6.14808 0.833333 7.23967 1.53305 7.69442 2.62655C8.53442 4.64642 6.814 6.04629 5.52392 7.289Z" stroke="var(--stroke-0, #F3F0E9)" stroke-width="0.5"/>
<path id="Vector_3" d="M7.5 8.33333C7.5 8.79358 6.38071 9.16667 5 9.16667C3.61929 9.16667 2.5 8.79358 2.5 8.33333" stroke="var(--stroke-0, #F3F0E9)" stroke-width="0.5" stroke-linecap="round"/>
</g>
</svg>
